# xmcd CD database file
#
# Track frame offsets:
#	150
#	18747
#	34162
#	48420
#	63762
#	82125
#	100837
#	119837
#	136505
#	148907
#	164905
#	177557
#	189767
#	208035
#	223330
#	252712
#	268240
#	284000
#	301365
#
# Disc length: 4237 seconds
#
# Revision: 1
# Processed by: cddbd v1.5.2PL0 Copyright (c) Steve Scherf et al.
# Submitted via: CDex 1.70beta2
#
DISCID=3a108b13
DTITLE=ChartBreakers - ChartBreakers CGC-546
DYEAR=1900
DGENRE=Country
TTITLE0=Alabama - Why Lady Why
TTITLE1=Bellamy Brothers - Redneck Girl
TTITLE2=Holly Dunn - Love Someone Like Me
TTITLE3=Robin Lee - Black Velvet
TTITLE4=Ronnie Milsap - Prisoner Of The Highway
TTITLE5=Ronnie Milsap - Stranger In My House
TTITLE6=Lorrie Morgan - I Guess You Had To Be There
TTITLE7=Eddy Raven - Sooner Or Later
TTITLE8=Sawyer Brown - Step That Step
TTITLE9=Steve Wariner - I Should Be With You
TTITLE10=Hank Williams Jr - Born To Boogie
TTITLE11=Hank Williams Jr - Dixie On My Mind
TTITLE12=Hank Williams Jr - Family Tradition
TTITLE13=Dwight Yoakam - Little Ways
TTITLE14=Alabama - My Home's In Alabama
TTITLE15=Bellamy Brothers - Cowboy Beat
TTITLE16=John Kerry - Kiss Me In The Car
TTITLE17=Clint Black - Desperado
TTITLE18=Charlie Daniels Band - Drinkin' My Baby Goodbye
EXTD=YEAR: 1900
EXTT0=
EXTT1=
EXTT2=
EXTT3=
EXTT4=
EXTT5=
EXTT6=
EXTT7=
EXTT8=
EXTT9=
EXTT10=
EXTT11=
EXTT12=
EXTT13=
EXTT14=
EXTT15=
EXTT16=
EXTT17=
EXTT18=
PLAYORDER=
